<svg width="205" height="56" viewBox="0 0 205 56" fill="none" xmlns="http://www.w3.org/2000/svg">
<g clip-path="url(#clip0_3_21)">
<path d="M38.4988 -0.485001H14.0888C6.50042 -0.485001 0.348816 5.66661 0.348816 13.255V37.665C0.348816 45.2534 6.50042 51.405 14.0888 51.405H38.4988C46.0872 51.405 52.2388 45.2534 52.2388 37.665V13.255C52.2388 5.66661 46.0872 -0.485001 38.4988 -0.485001Z" fill="#E9FF61"/>
<path d="M14.63 36.14C14.78 36.14 14.94 36.09 15.07 35.99C15.38 35.75 15.44 35.3 15.2 34.98C13.36 32.6 12.38 29.75 12.38 26.73C12.38 19.3 18.43 13.25 25.86 13.25C27.61 13.25 29.31 13.58 30.92 14.23C31.29 14.38 31.71 14.2 31.86 13.83C32.01 13.46 31.83 13.04 31.46 12.89C29.68 12.17 27.8 11.8 25.86 11.8C17.63 11.8 10.94 18.49 10.94 26.72C10.94 30.06 12.02 33.21 14.06 35.85C14.2 36.03 14.41 36.13 14.63 36.13V36.14Z" fill="black"/>
<path d="M37.67 17.61C37.43 17.3 36.98 17.24 36.66 17.48C36.34 17.72 36.29 18.17 36.53 18.49C38.37 20.87 39.35 23.72 39.35 26.74C39.35 34.17 33.3 40.22 25.87 40.22C24.12 40.22 22.42 39.89 20.81 39.24C20.44 39.09 20.02 39.27 19.87 39.64C19.72 40.01 19.9 40.43 20.27 40.58C22.05 41.3 23.93 41.67 25.87 41.67C34.1 41.67 40.79 34.98 40.79 26.75C40.79 23.41 39.71 20.26 37.67 17.62V17.61Z" fill="black"/>
<path d="M35.08 26.51C34.98 26.21 34.71 26.01 34.4 26.01H29.17L39.72 11.33C39.93 11.04 39.89 10.65 39.64 10.4C39.39 10.15 39 10.12 38.71 10.33L16.92 26.15C16.67 26.33 16.56 26.66 16.66 26.95C16.76 27.24 17.03 27.45 17.34 27.45H22.57L12.02 42.13C11.81 42.42 11.85 42.81 12.1 43.06C12.24 43.2 12.42 43.27 12.61 43.27C12.76 43.27 12.91 43.22 13.03 43.13L34.82 27.31C35.07 27.13 35.18 26.8 35.08 26.51ZM15.79 39.35L24.56 27.15C24.72 26.93 24.74 26.64 24.62 26.4C24.5 26.16 24.25 26.01 23.98 26.01H19.56L35.95 14.11L27.18 26.31C27.02 26.53 27 26.82 27.12 27.06C27.24 27.3 27.49 27.45 27.76 27.45H32.18L15.79 39.35Z" fill="black"/>
<path d="M65.566 5.898L66.49 7.41H57.628V12.303H62.899L63.823 13.836H57.628V19.926H65.566L66.49 21.48H55.906V5.898H65.566ZM78.7727 5.898L73.4597 21.795L68.1467 5.898H69.8687L73.4597 16.797L77.0507 5.898H78.7727Z" fill="black"/>
<path d="M65.566 5.898L65.9926 5.63728L65.8464 5.398H65.566V5.898ZM66.49 7.41V7.91H67.3815L66.9166 7.14928L66.49 7.41ZM57.628 7.41V6.91H57.128V7.41H57.628ZM57.628 12.303H57.128V12.803H57.628V12.303ZM62.899 12.303L63.3272 12.0449L63.1814 11.803H62.899V12.303ZM63.823 13.836V14.336H64.7082L64.2512 13.5779L63.823 13.836ZM57.628 13.836V13.336H57.128V13.836H57.628ZM57.628 19.926H57.128V20.426H57.628V19.926ZM65.566 19.926L65.9958 19.6705L65.8504 19.426H65.566V19.926ZM66.49 21.48V21.98H67.369L66.9198 21.2245L66.49 21.48ZM55.906 21.48H55.406V21.98H55.906V21.48ZM55.906 5.898V5.398H55.406V5.898H55.906ZM65.566 5.898L65.1394 6.15873L66.0634 7.67073L66.49 7.41L66.9166 7.14928L65.9926 5.63728L65.566 5.898ZM66.49 7.41V6.91H57.628V7.41V7.91H66.49V7.41ZM57.628 7.41H57.128V12.303H57.628H58.128V7.41H57.628ZM57.628 12.303V12.803H62.899V12.303V11.803H57.628V12.303ZM62.899 12.303L62.4708 12.5611L63.3948 14.0941L63.823 13.836L64.2512 13.5779L63.3272 12.0449L62.899 12.303ZM63.823 13.836V13.336H57.628V13.836V14.336H63.823V13.836ZM57.628 13.836H57.128V19.926H57.628H58.128V13.836H57.628ZM57.628 19.926V20.426H65.566V19.926V19.426H57.628V19.926ZM65.566 19.926L65.1362 20.1815L66.0602 21.7355L66.49 21.48L66.9198 21.2245L65.9958 19.6705L65.566 19.926ZM66.49 21.48V20.98H55.906V21.48V21.98H66.49V21.48ZM55.906 21.48H56.406V5.898H55.906H55.406V21.48H55.906ZM55.906 5.898V6.398H65.566V5.898V5.398H55.906V5.898ZM78.7727 5.898L79.2469 6.05649L79.467 5.398H78.7727V5.898ZM73.4597 21.795L72.9855 21.9535L73.4597 23.3724L73.9339 21.9535L73.4597 21.795ZM68.1467 5.898V5.398H67.4524L67.6725 6.05649L68.1467 5.898ZM69.8687 5.898L70.3436 5.74154L70.2304 5.398H69.8687V5.898ZM73.4597 16.797L72.9848 16.9535L73.4597 18.3948L73.9346 16.9535L73.4597 16.797ZM77.0507 5.898V5.398H76.689L76.5758 5.74154L77.0507 5.898ZM78.7727 5.898L78.2985 5.73951L72.9855 21.6365L73.4597 21.795L73.9339 21.9535L79.2469 6.05649L78.7727 5.898ZM73.4597 21.795L73.9339 21.6365L68.6209 5.73951L68.1467 5.898L67.6725 6.05649L72.9855 21.9535L73.4597 21.795ZM68.1467 5.898V6.398H69.8687V5.898V5.398H68.1467V5.898ZM69.8687 5.898L69.3938 6.05447L72.9848 16.9535L73.4597 16.797L73.9346 16.6405L70.3436 5.74154L69.8687 5.898ZM73.4597 16.797L73.9346 16.9535L77.5256 6.05447L77.0507 5.898L76.5758 5.74154L72.9848 16.6405L73.4597 16.797ZM77.0507 5.898V6.398H78.7727V5.898V5.398H77.0507V5.898Z" fill="black"/>
<path d="M66.427 31.138L61.114 47.035L55.801 31.138H57.523L61.114 42.037L64.705 31.138H66.427ZM73.4807 30.991C74.4467 30.991 75.2937 31.229 76.0217 31.705C76.7357 32.153 77.3097 32.776 77.7437 33.574C78.1357 34.19 78.4227 35.044 78.6047 36.136C78.7307 36.892 78.8007 37.83 78.8147 38.95C78.8147 40.196 78.6747 41.435 78.3947 42.667C78.1007 43.815 77.5197 44.802 76.6517 45.628C75.7977 46.44 74.7407 46.846 73.4807 46.846C72.1927 46.846 71.1217 46.44 70.2677 45.628C69.3997 44.802 68.8187 43.815 68.5247 42.667C68.2447 41.435 68.1047 40.196 68.1047 38.95C68.1187 37.83 68.1887 36.892 68.3147 36.136C68.4967 35.044 68.7837 34.19 69.1757 33.574C69.6097 32.776 70.1837 32.153 70.8977 31.705C71.6257 31.229 72.4867 30.991 73.4807 30.991ZM76.5677 35.737C76.1477 33.553 75.1187 32.461 73.4807 32.461C71.8427 32.461 70.7997 33.553 70.3517 35.737C70.1277 36.773 70.0157 37.844 70.0157 38.95C70.0297 40.28 70.1417 41.456 70.3517 42.478C70.7997 44.41 71.8427 45.376 73.4807 45.376C75.1187 45.376 76.1477 44.41 76.5677 42.478C76.7777 41.554 76.8897 40.378 76.9037 38.95C76.9037 37.886 76.7917 36.815 76.5677 35.737ZM82.9704 31.138V45.166H90.0264L90.9294 46.72H81.2484V31.138H82.9704ZM111.442 31.138C111.932 31.138 112.506 31.474 113.164 32.146C113.822 32.818 114.368 33.595 114.802 34.477C115.474 35.807 115.81 37.417 115.81 39.307C115.81 41.057 115.404 42.611 114.592 43.969C114.186 44.683 113.647 45.313 112.975 45.859C112.275 46.433 111.764 46.72 111.442 46.72H105.205V31.138H111.442ZM114.088 39.307C114.088 37.781 113.815 36.479 113.269 35.401C112.905 34.687 112.471 34.05 111.967 33.49C111.491 32.93 111.05 32.65 110.644 32.65H106.927V45.166H110.644C110.91 45.166 111.302 44.914 111.82 44.41C112.254 43.99 112.688 43.451 113.122 42.793C113.766 41.729 114.088 40.567 114.088 39.307ZM127.148 31.138L128.072 32.65H122.99C122.304 32.692 121.709 32.902 121.205 33.28C120.729 33.63 120.344 34.134 120.05 34.792C119.812 35.324 119.623 35.954 119.483 36.682C119.357 37.326 119.294 38.019 119.294 38.761C119.294 39.587 119.364 40.329 119.504 40.987C119.63 41.645 119.847 42.324 120.155 43.024C120.449 43.668 120.855 44.186 121.373 44.578C121.891 44.97 122.507 45.166 123.221 45.166H126.434L125.741 38.929H123.074L122.423 37.354H127.19L128.156 45.166V46.72H123.221C121.989 46.72 120.946 46.314 120.092 45.502C119.21 44.69 118.573 43.696 118.181 42.52C117.775 41.302 117.572 40.049 117.572 38.761C117.572 37.529 117.754 36.332 118.118 35.17C118.482 34.05 119.077 33.098 119.903 32.314C120.729 31.53 121.716 31.138 122.864 31.138H127.148ZM139.64 31.138L140.564 32.65H131.702V37.543H136.973L137.897 39.076H131.702V45.166H139.64L140.564 46.72H129.98V31.138H139.64Z" fill="black"/>
<path d="M66.427 31.138L66.9012 31.2965L67.1213 30.638H66.427V31.138ZM61.114 47.035L60.6398 47.1935L61.114 48.6124L61.5882 47.1935L61.114 47.035ZM55.801 31.138V30.638H55.1067L55.3268 31.2965L55.801 31.138ZM57.523 31.138L57.9979 30.9815L57.8847 30.638H57.523V31.138ZM61.114 42.037L60.6391 42.1935L61.114 43.6348L61.5889 42.1935L61.114 42.037ZM64.705 31.138V30.638H64.3433L64.2301 30.9815L64.705 31.138ZM66.427 31.138L65.9528 30.9795L60.6398 46.8765L61.114 47.035L61.5882 47.1935L66.9012 31.2965L66.427 31.138ZM61.114 47.035L61.5882 46.8765L56.2752 30.9795L55.801 31.138L55.3268 31.2965L60.6398 47.1935L61.114 47.035ZM55.801 31.138V31.638H57.523V31.138V30.638H55.801V31.138ZM57.523 31.138L57.0481 31.2945L60.6391 42.1935L61.114 42.037L61.5889 41.8805L57.9979 30.9815L57.523 31.138ZM61.114 42.037L61.5889 42.1935L65.1799 31.2945L64.705 31.138L64.2301 30.9815L60.6391 41.8805L61.114 42.037ZM64.705 31.138V31.638H66.427V31.138V30.638H64.705V31.138ZM76.0217 31.705L75.748 32.1236L75.756 32.1285L76.0217 31.705ZM77.7437 33.574L77.3045 33.8129L77.3127 33.828L77.3219 33.8424L77.7437 33.574ZM78.6047 36.136L79.0979 36.0538V36.0538L78.6047 36.136ZM78.8147 38.95H79.3147L79.3147 38.9438L78.8147 38.95ZM78.3947 42.667L78.8793 42.7911L78.8823 42.7778L78.3947 42.667ZM76.6517 45.628L76.9962 45.9904L76.9964 45.9902L76.6517 45.628ZM70.2677 45.628L69.923 45.9902L69.9232 45.9904L70.2677 45.628ZM68.5247 42.667L68.037 42.7779L68.0403 42.791L68.5247 42.667ZM68.1047 38.95L67.6047 38.9438V38.95H68.1047ZM68.3147 36.136L68.8079 36.2182V36.2182L68.3147 36.136ZM69.1757 33.574L69.5975 33.8424L69.6067 33.828L69.6149 33.8129L69.1757 33.574ZM70.8977 31.705L71.1635 32.1286L71.1713 32.1235L70.8977 31.705ZM76.5677 35.737L76.0766 35.8314L76.0782 35.8387L76.5677 35.737ZM70.3517 35.737L70.8404 35.8427L70.8415 35.8375L70.3517 35.737ZM70.0157 38.95H69.5157L69.5157 38.9553L70.0157 38.95ZM70.3517 42.478L69.8618 42.5787L69.8646 42.5909L70.3517 42.478ZM76.5677 42.478L76.0801 42.3672L76.0791 42.3718L76.5677 42.478ZM76.9037 38.95L77.4037 38.9549V38.95H76.9037ZM73.4807 30.991V31.491C74.3607 31.491 75.1103 31.7065 75.7481 32.1235L76.0217 31.705L76.2953 31.2865C75.4771 30.7515 74.5328 30.491 73.4807 30.491V30.991ZM76.0217 31.705L75.756 32.1285C76.3916 32.5274 76.9082 33.0843 77.3045 33.8129L77.7437 33.574L78.1829 33.3351C77.7112 32.4677 77.0798 31.7786 76.2875 31.2815L76.0217 31.705ZM77.7437 33.574L77.3219 33.8424C77.6641 34.3803 77.9354 35.1616 78.1115 36.2182L78.6047 36.136L79.0979 36.0538C78.91 34.9264 78.6073 33.9997 78.1655 33.3056L77.7437 33.574ZM78.6047 36.136L78.1115 36.2182C78.2319 36.9405 78.3009 37.8512 78.3147 38.9563L78.8147 38.95L79.3147 38.9438C79.3005 37.8088 79.2295 36.8435 79.0979 36.0538L78.6047 36.136ZM78.8147 38.95H78.3147C78.3147 40.1582 78.179 41.36 77.9071 42.5562L78.3947 42.667L78.8823 42.7778C79.1704 41.51 79.3147 40.2338 79.3147 38.95H78.8147ZM78.3947 42.667L77.9103 42.543C77.6399 43.599 77.1078 44.5037 76.307 45.2658L76.6517 45.628L76.9964 45.9902C77.9316 45.1003 78.5615 44.031 78.8791 42.791L78.3947 42.667ZM76.6517 45.628L76.3072 45.2656C75.553 45.9828 74.6222 46.346 73.4807 46.346V46.846V47.346C74.8592 47.346 76.0425 46.8972 76.9962 45.9904L76.6517 45.628ZM73.4807 46.846V46.346C72.3079 46.346 71.3643 45.9807 70.6122 45.2656L70.2677 45.628L69.9232 45.9904C70.8791 46.8993 72.0775 47.346 73.4807 47.346V46.846ZM70.2677 45.628L70.6124 45.2658C69.8116 44.5037 69.2795 43.599 69.0091 42.543L68.5247 42.667L68.0403 42.791C68.3579 44.031 68.9878 45.1003 69.923 45.9902L70.2677 45.628ZM68.5247 42.667L69.0123 42.5562C68.7404 41.36 68.6047 40.1582 68.6047 38.95H68.1047H67.6047C67.6047 40.2338 67.749 41.51 68.0371 42.7778L68.5247 42.667ZM68.1047 38.95L68.6047 38.9563C68.6185 37.8512 68.6875 36.9405 68.8079 36.2182L68.3147 36.136L67.8215 36.0538C67.6899 36.8435 67.6189 37.8088 67.6047 38.9438L68.1047 38.95ZM68.3147 36.136L68.8079 36.2182C68.984 35.1616 69.2553 34.3803 69.5975 33.8424L69.1757 33.574L68.7539 33.3056C68.3121 33.9997 68.0094 34.9264 67.8215 36.0538L68.3147 36.136ZM69.1757 33.574L69.6149 33.8129C70.0112 33.0843 70.5278 32.5274 71.1635 32.1285L70.8977 31.705L70.632 31.2815C69.8396 31.7786 69.2082 32.4677 68.7365 33.3351L69.1757 33.574ZM70.8977 31.705L71.1713 32.1235C71.8068 31.708 72.5696 31.491 73.4807 31.491V30.991V30.491C72.4038 30.491 71.4446 30.75 70.6241 31.2865L70.8977 31.705ZM76.5677 35.737L77.0587 35.6426C76.8389 34.4995 76.4487 33.5779 75.8449 32.9371C75.2267 32.2811 74.4234 31.961 73.4807 31.961V32.461V32.961C74.176 32.961 74.7063 33.1869 75.1171 33.6229C75.5422 34.0741 75.8765 34.7905 76.0767 35.8314L76.5677 35.737ZM73.4807 32.461V31.961C72.538 31.961 71.7328 32.281 71.1084 32.9347C70.4981 33.5737 70.0963 34.4936 69.8619 35.6365L70.3517 35.737L70.8415 35.8375C71.0551 34.7964 71.3989 34.0783 71.8315 33.6253C72.2502 33.187 72.7854 32.961 73.4807 32.961V32.461ZM70.3517 35.737L69.863 35.6313C69.6312 36.7035 69.5157 37.81 69.5157 38.95H70.0157H70.5157C70.5157 37.878 70.6242 36.8425 70.8404 35.8427L70.3517 35.737ZM70.0157 38.95L69.5157 38.9553C69.53 40.309 69.644 41.5181 69.8619 42.5786L70.3517 42.478L70.8415 42.3774C70.6394 41.3939 70.5294 40.251 70.5157 38.9447L70.0157 38.95ZM70.3517 42.478L69.8646 42.5909C70.1026 43.6172 70.5115 44.4454 71.1302 45.0183C71.7582 45.5999 72.5563 45.876 73.4807 45.876V45.376V44.876C72.7671 44.876 72.2247 44.6691 71.8097 44.2847C71.3854 43.8916 71.0488 43.2708 70.8388 42.3651L70.3517 42.478ZM73.4807 45.376V45.876C74.405 45.876 75.2012 45.6 75.8232 45.016C76.4357 44.441 76.8331 43.6108 77.0563 42.5842L76.5677 42.478L76.0791 42.3718C75.8823 43.2772 75.5552 43.896 75.1387 44.287C74.7317 44.669 74.1944 44.876 73.4807 44.876V45.376ZM76.5677 42.478L77.0553 42.5888C77.2761 41.6173 77.3895 40.4025 77.4037 38.9549L76.9037 38.95L76.4037 38.9451C76.3899 40.3535 76.2793 41.4907 76.0801 42.3672L76.5677 42.478ZM76.9037 38.95H77.4037C77.4037 37.8507 77.288 36.7456 77.0572 35.6353L76.5677 35.737L76.0782 35.8387C76.2955 36.8844 76.4037 37.9213 76.4037 38.95H76.9037ZM82.9704 31.138H83.4704V30.638H82.9704V31.138ZM82.9704 45.166H82.4704V45.666H82.9704V45.166ZM90.0264 45.166L90.4587 44.9148L90.3142 44.666H90.0264V45.166ZM90.9294 46.72V47.22H91.7982L91.3617 46.4688L90.9294 46.72ZM81.2484 46.72H80.7484V47.22H81.2484V46.72ZM81.2484 31.138V30.638H80.7484V31.138H81.2484ZM82.9704 31.138H82.4704V45.166H82.9704H83.4704V31.138H82.9704ZM82.9704 45.166V45.666H90.0264V45.166V44.666H82.9704V45.166ZM90.0264 45.166L89.5941 45.4172L90.4971 46.9712L90.9294 46.72L91.3617 46.4688L90.4587 44.9148L90.0264 45.166ZM90.9294 46.72V46.22H81.2484V46.72V47.22H90.9294V46.72ZM81.2484 46.72H81.7484V31.138H81.2484H80.7484V46.72H81.2484ZM81.2484 31.138V31.638H82.9704V31.138V30.638H81.2484V31.138ZM113.164 32.146L112.807 32.4958V32.4958L113.164 32.146ZM114.802 34.477L114.353 34.6978L114.356 34.7025L114.802 34.477ZM114.592 43.969L114.163 43.7123L114.157 43.7218L114.592 43.969ZM112.975 45.859L112.66 45.4709L112.658 45.4724L112.975 45.859ZM105.205 46.72H104.705V47.22H105.205V46.72ZM105.205 31.138V30.638H104.705V31.138H105.205ZM113.269 35.401L113.715 35.1751L113.714 35.1739L113.269 35.401ZM111.967 33.49L111.586 33.8138L111.59 33.8192L111.595 33.8245L111.967 33.49ZM106.927 32.65V32.15H106.427V32.65H106.927ZM106.927 45.166H106.427V45.666H106.927V45.166ZM111.82 44.41L111.472 44.0507L111.471 44.0516L111.82 44.41ZM113.122 42.793L113.539 43.0683L113.545 43.0602L113.55 43.0519L113.122 42.793ZM111.442 31.138V31.638C111.717 31.638 112.166 31.8414 112.807 32.4958L113.164 32.146L113.521 31.7962C112.846 31.1066 112.146 30.638 111.442 30.638V31.138ZM113.164 32.146L112.807 32.4958C113.426 33.1282 113.942 33.8612 114.353 34.6978L114.802 34.477L115.25 34.2562C114.794 33.3288 114.218 32.5078 113.521 31.7962L113.164 32.146ZM114.802 34.477L114.356 34.7025C114.984 35.9464 115.31 37.4749 115.31 39.307H115.81H116.31C116.31 37.3591 115.964 35.6676 115.248 34.2515L114.802 34.477ZM115.81 39.307H115.31C115.31 40.9765 114.923 42.44 114.163 43.7124L114.592 43.969L115.021 44.2256C115.884 42.782 116.31 41.1375 116.31 39.307H115.81ZM114.592 43.969L114.157 43.7218C113.784 44.379 113.286 44.9619 112.66 45.4709L112.975 45.859L113.29 46.2471C114.008 45.6641 114.588 44.987 115.026 44.2162L114.592 43.969ZM112.975 45.859L112.658 45.4724C112.32 45.7497 112.042 45.9451 111.822 46.0688C111.589 46.1996 111.472 46.22 111.442 46.22V46.72V47.22C111.733 47.22 112.033 47.0969 112.311 46.9407C112.602 46.7774 112.93 46.5423 113.292 46.2456L112.975 45.859ZM111.442 46.72V46.22H105.205V46.72V47.22H111.442V46.72ZM105.205 46.72H105.705V31.138H105.205H104.705V46.72H105.205ZM105.205 31.138V31.638H111.442V31.138V30.638H105.205V31.138ZM114.088 39.307H114.588C114.588 37.7226 114.304 36.3391 113.715 35.1751L113.269 35.401L112.823 35.6269C113.325 36.6189 113.588 37.8394 113.588 39.307H114.088ZM113.269 35.401L113.714 35.1739C113.332 34.4235 112.873 33.7499 112.338 33.1555L111.967 33.49L111.595 33.8245C112.068 34.3501 112.478 34.9505 112.823 35.6281L113.269 35.401ZM111.967 33.49L112.348 33.1662C111.849 32.579 111.28 32.15 110.644 32.15V32.65V33.15C110.82 33.15 111.133 33.281 111.586 33.8138L111.967 33.49ZM110.644 32.65V32.15H106.927V32.65V33.15H110.644V32.65ZM106.927 32.65H106.427V45.166H106.927H107.427V32.65H106.927ZM106.927 45.166V45.666H110.644V45.166V44.666H106.927V45.166ZM110.644 45.166V45.666C110.921 45.666 111.184 45.5413 111.408 45.3976C111.643 45.2465 111.897 45.0324 112.168 44.7684L111.82 44.41L111.471 44.0516C111.225 44.2916 111.024 44.4555 110.867 44.5564C110.698 44.6647 110.633 44.666 110.644 44.666V45.166ZM111.82 44.41L112.168 44.7693C112.634 44.3176 113.091 43.7481 113.539 43.0683L113.122 42.793L112.704 42.5177C112.285 43.1539 111.873 43.6624 111.472 44.0507L111.82 44.41ZM113.122 42.793L113.55 43.0519C114.241 41.9087 114.588 40.657 114.588 39.307H114.088H113.588C113.588 40.477 113.29 41.5493 112.694 42.5341L113.122 42.793ZM127.148 31.138L127.574 30.8773L127.428 30.638H127.148V31.138ZM128.072 32.65V33.15H128.963L128.498 32.3893L128.072 32.65ZM122.99 32.65V32.15H122.974L122.959 32.1509L122.99 32.65ZM121.205 33.28L121.501 33.6828L121.505 33.68L121.205 33.28ZM120.05 34.792L120.506 34.9962L120.506 34.996L120.05 34.792ZM119.483 36.682L119.973 36.778L119.974 36.7764L119.483 36.682ZM119.504 40.987L119.995 40.8929L119.993 40.8829L119.504 40.987ZM120.155 43.024L119.697 43.2254L119.7 43.2316L120.155 43.024ZM126.434 45.166V45.666H126.992L126.93 45.1108L126.434 45.166ZM125.741 38.929L126.237 38.8738L126.188 38.429H125.741V38.929ZM123.074 38.929L122.611 39.12L122.739 39.429H123.074V38.929ZM122.423 37.354V36.854H121.675L121.96 37.545L122.423 37.354ZM127.19 37.354L127.686 37.2926L127.632 36.854H127.19V37.354ZM128.156 45.166H128.656V45.1352L128.652 45.1046L128.156 45.166ZM128.156 46.72V47.22H128.656V46.72H128.156ZM120.092 45.502L120.436 45.1396L120.43 45.1342L120.092 45.502ZM118.181 42.52L118.655 42.3619V42.3619L118.181 42.52ZM118.118 35.17L117.642 35.0154L117.64 35.0205L118.118 35.17ZM119.903 32.314L120.247 32.6767V32.6767L119.903 32.314ZM127.148 31.138L126.721 31.3987L127.645 32.9107L128.072 32.65L128.498 32.3893L127.574 30.8773L127.148 31.138ZM128.072 32.65V32.15H122.99V32.65V33.15H128.072V32.65ZM122.99 32.65L122.959 32.1509C122.185 32.1983 121.494 32.438 120.905 32.88L121.205 33.28L121.505 33.68C121.923 33.366 122.422 33.1857 123.02 33.1491L122.99 32.65ZM121.205 33.28L120.908 32.8772C120.349 33.2886 119.915 33.8683 119.593 34.588L120.05 34.792L120.506 34.996C120.772 34.3997 121.108 33.9714 121.501 33.6828L121.205 33.28ZM120.05 34.792L119.593 34.5878C119.336 35.1629 119.137 35.8315 118.992 36.5876L119.483 36.682L119.974 36.7764C120.108 36.0765 120.287 35.4851 120.506 34.9962L120.05 34.792ZM119.483 36.682L118.992 36.586C118.859 37.2654 118.794 37.9909 118.794 38.761H119.294H119.794C119.794 38.0471 119.854 37.3866 119.973 36.778L119.483 36.682ZM119.294 38.761H118.794C118.794 39.6144 118.866 40.3922 119.014 41.0911L119.504 40.987L119.993 40.8829C119.861 40.2658 119.794 39.5596 119.794 38.761H119.294ZM119.504 40.987L119.012 41.081C119.146 41.7807 119.376 42.4957 119.697 43.2254L120.155 43.024L120.612 42.8226C120.317 42.1523 120.113 41.5093 119.995 40.893L119.504 40.987ZM120.155 43.024L119.7 43.2316C120.025 43.9441 120.481 44.5303 121.071 44.9767L121.373 44.578L121.674 44.1793C121.228 43.8417 120.872 43.3919 120.609 42.8164L120.155 43.024ZM121.373 44.578L121.071 44.9767C121.684 45.441 122.409 45.666 123.221 45.666V45.166V44.666C122.604 44.666 122.097 44.499 121.674 44.1793L121.373 44.578ZM123.221 45.166V45.666H126.434V45.166V44.666H123.221V45.166ZM126.434 45.166L126.93 45.1108L126.237 38.8738L125.741 38.929L125.244 38.9842L125.937 45.2212L126.434 45.166ZM125.741 38.929V38.429H123.074V38.929V39.429H125.741V38.929ZM123.074 38.929L123.536 38.738L122.885 37.163L122.423 37.354L121.96 37.545L122.611 39.12L123.074 38.929ZM122.423 37.354V37.854H127.19V37.354V36.854H122.423V37.354ZM127.19 37.354L126.693 37.4154L127.659 45.2274L128.156 45.166L128.652 45.1046L127.686 37.2926L127.19 37.354ZM128.156 45.166H127.656V46.72H128.156H128.656V45.166H128.156ZM128.156 46.72V46.22H123.221V46.72V47.22H128.156V46.72ZM123.221 46.72V46.22C122.11 46.22 121.193 45.8589 120.436 45.1397L120.092 45.502L119.747 45.8644C120.698 46.7691 121.867 47.22 123.221 47.22V46.72ZM120.092 45.502L120.43 45.1342C119.613 44.3815 119.021 43.4605 118.655 42.3619L118.181 42.52L117.706 42.6781C118.124 43.9315 118.806 44.9986 119.753 45.8699L120.092 45.502ZM118.181 42.52L118.655 42.3619C118.266 41.195 118.072 39.9954 118.072 38.761H117.572H117.072C117.072 40.1026 117.283 41.409 117.706 42.6781L118.181 42.52ZM117.572 38.761H118.072C118.072 37.5791 118.246 36.4325 118.595 35.3195L118.118 35.17L117.64 35.0205C117.261 36.2315 117.072 37.4789 117.072 38.761H117.572ZM118.118 35.17L118.593 35.3245C118.932 34.281 119.483 33.4013 120.247 32.6767L119.903 32.314L119.558 31.9513C118.67 32.7947 118.031 33.819 117.642 35.0155L118.118 35.17ZM119.903 32.314L120.247 32.6767C120.979 31.9816 121.842 31.638 122.864 31.638V31.138V30.638C121.589 30.638 120.478 31.0784 119.558 31.9513L119.903 32.314ZM122.864 31.138V31.638H127.148V31.138V30.638H122.864V31.138ZM139.64 31.138L140.067 30.8773L139.921 30.638H139.64V31.138ZM140.564 32.65V33.15H141.456L140.991 32.3893L140.564 32.65ZM131.702 32.65V32.15H131.202V32.65H131.702ZM131.702 37.543H131.202V38.043H131.702V37.543ZM136.973 37.543L137.401 37.2849L137.256 37.043H136.973V37.543ZM137.897 39.076V39.576H138.782L138.325 38.8179L137.897 39.076ZM131.702 39.076V38.576H131.202V39.076H131.702ZM131.702 45.166H131.202V45.666H131.702V45.166ZM139.64 45.166L140.07 44.9105L139.925 44.666H139.64V45.166ZM140.564 46.72V47.22H141.443L140.994 46.4645L140.564 46.72ZM129.98 46.72H129.48V47.22H129.98V46.72ZM129.98 31.138V30.638H129.48V31.138H129.98ZM139.64 31.138L139.214 31.3987L140.138 32.9107L140.564 32.65L140.991 32.3893L140.067 30.8773L139.64 31.138ZM140.564 32.65V32.15H131.702V32.65V33.15H140.564V32.65ZM131.702 32.65H131.202V37.543H131.702H132.202V32.65H131.702ZM131.702 37.543V38.043H136.973V37.543V37.043H131.702V37.543ZM136.973 37.543L136.545 37.8011L137.469 39.3341L137.897 39.076L138.325 38.8179L137.401 37.2849L136.973 37.543ZM137.897 39.076V38.576H131.702V39.076V39.576H137.897V39.076ZM131.702 39.076H131.202V45.166H131.702H132.202V39.076H131.702ZM131.702 45.166V45.666H139.64V45.166V44.666H131.702V45.166ZM139.64 45.166L139.21 45.4215L140.134 46.9755L140.564 46.72L140.994 46.4645L140.07 44.9105L139.64 45.166ZM140.564 46.72V46.22H129.98V46.72V47.22H140.564V46.72ZM129.98 46.72H130.48V31.138H129.98H129.48V46.72H129.98ZM129.98 31.138V31.638H139.64V31.138V30.638H129.98V31.138Z" fill="black"/>
<path d="M102.696 31.138L103.62 32.65H94.758V37.543H100.029L100.953 39.076H94.758V45.166H102.696L103.62 46.72H93.036V31.138H102.696Z" fill="black"/>
<path d="M102.696 31.138L103.123 30.8773L102.976 30.638H102.696V31.138ZM103.62 32.65V33.15H104.512L104.047 32.3893L103.62 32.65ZM94.758 32.65V32.15H94.258V32.65H94.758ZM94.758 37.543H94.258V38.043H94.758V37.543ZM100.029 37.543L100.457 37.2849L100.311 37.043H100.029V37.543ZM100.953 39.076V39.576H101.838L101.381 38.8179L100.953 39.076ZM94.758 39.076V38.576H94.258V39.076H94.758ZM94.758 45.166H94.258V45.666H94.758V45.166ZM102.696 45.166L103.126 44.9105L102.98 44.666H102.696V45.166ZM103.62 46.72V47.22H104.499L104.05 46.4645L103.62 46.72ZM93.036 46.72H92.536V47.22H93.036V46.72ZM93.036 31.138V30.638H92.536V31.138H93.036ZM102.696 31.138L102.269 31.3987L103.193 32.9107L103.62 32.65L104.047 32.3893L103.123 30.8773L102.696 31.138ZM103.62 32.65V32.15H94.758V32.65V33.15H103.62V32.65ZM94.758 32.65H94.258V37.543H94.758H95.258V32.65H94.758ZM94.758 37.543V38.043H100.029V37.543V37.043H94.758V37.543ZM100.029 37.543L99.6008 37.8011L100.525 39.3341L100.953 39.076L101.381 38.8179L100.457 37.2849L100.029 37.543ZM100.953 39.076V38.576H94.758V39.076V39.576H100.953V39.076ZM94.758 39.076H94.258V45.166H94.758H95.258V39.076H94.758ZM94.758 45.166V45.666H102.696V45.166V44.666H94.758V45.166ZM102.696 45.166L102.266 45.4215L103.19 46.9755L103.62 46.72L104.05 46.4645L103.126 44.9105L102.696 45.166ZM103.62 46.72V46.22H93.036V46.72V47.22H103.62V46.72ZM93.036 46.72H93.536V31.138H93.036H92.536V46.72H93.036ZM93.036 31.138V31.638H102.696V31.138V30.638H93.036V31.138Z" fill="black"/>
<path d="M93.062 32.671H89.345L88.421 31.138H98.543L99.467 32.671H94.805V46.72H93.062V32.671Z" fill="black"/>
<path d="M93.062 32.671H93.562V32.171H93.062V32.671ZM89.345 32.671L88.9168 32.9291L89.0626 33.171H89.345V32.671ZM88.421 31.138V30.638H87.5358L87.9928 31.3961L88.421 31.138ZM98.543 31.138L98.9712 30.8799L98.8254 30.638H98.543V31.138ZM99.467 32.671V33.171H100.352L99.8952 32.4129L99.467 32.671ZM94.805 32.671V32.171H94.305V32.671H94.805ZM94.805 46.72V47.22H95.305V46.72H94.805ZM93.062 46.72H92.562V47.22H93.062V46.72ZM93.062 32.671V32.171H89.345V32.671V33.171H93.062V32.671ZM89.345 32.671L89.7732 32.4129L88.8492 30.8799L88.421 31.138L87.9928 31.3961L88.9168 32.9291L89.345 32.671ZM88.421 31.138V31.638H98.543V31.138V30.638H88.421V31.138ZM98.543 31.138L98.1148 31.3961L99.0388 32.9291L99.467 32.671L99.8952 32.4129L98.9712 30.8799L98.543 31.138ZM99.467 32.671V32.171H94.805V32.671V33.171H99.467V32.671ZM94.805 32.671H94.305V46.72H94.805H95.305V32.671H94.805ZM94.805 46.72V46.22H93.062V46.72V47.22H94.805V46.72ZM93.062 46.72H93.562V32.671H93.062H92.562V46.72H93.062Z" fill="black"/>
<path d="M81.69 14.12H152.93" stroke="black" stroke-miterlimit="10"/>
</g>
<defs>
<clipPath id="clip0_3_21">
<rect width="204.13" height="55.03" fill="white"/>
</clipPath>
</defs>
</svg>
